Patient4_TMGait_0pt7_02_left_02_EMG.mot
version=1
nRows=13
nColumns=33
inDegrees=no
endheader
time	1LAddLong	2LGlutMax	3LGlutMed	4LIliopsoas	5LSemiMemb	6LBicFemLong	7LRecFem	8LVastMed	9LVastLat	10LGasMed	11LTibAnt	12lTibPost	13LPeroneusLong	14LSol	15LExtDigLong	16LFlexDigLong	17RAddLong	18RGlutMax	19RGlutMed	20RIliopsoas	21RSemiMemb	22RBicFemLong	23RRecFem	24RVastMed	25RVastLat	26RGasMed	27RTibAnt	28RTibPost	29RPeroneusLong	30RSol	31RExtDigLong	32RFlexDigLong
2.227	0.069885	0.86136	0.11719	0.032654	0.24368	-1.5532	-0.31815	-0.005646	-0.046997	-0.30655	0.003204	-0.13107	-0.70709	-0.16419	-0.075073	0.02594	-0.007324	-0.31891	-0.80048	-0.14191	-0.17731	-0.053558	0.73837	-0.16357	0.003662	0.017242	0.022888	-0.077057	-0.001984	0.17288	0.001373	-0.013733
2.228	0.046997	0.87647	0.11932	0.013885	0.12634	-1.1021	-0.37827	-0.015564	-0.010986	-0.14053	0.054016	-0.15457	-0.28809	-0.18982	-0.090332	0.036316	0.018158	-0.36072	-0.80124	-0.16556	-0.15854	-0.018005	0.62882	-0.099487	0.00473	0.025177	-0.016022	0.020905	-0.36148	0.35568	0.000916	-0.011292
2.229	0.035553	0.78796	0.074005	-0.027924	0.021515	-0.5751	-0.42648	-0.016632	0.059814	0.030365	0.059204	-0.093536	0.11658	0.11643	-0.027466	0.022888	0.022278	-0.37766	-0.88592	-0.10834	-0.14633	0.001831	0.60226	-0.068817	0.007629	0.035858	-0.016785	-0.030823	-0.27863	0.036163	0.001678	-0.001221
2.23	0.03006	0.72266	0.056152	-0.009766	-0.062561	-0.40832	-0.45914	-0.00946	0.097961	0.27893	-0.048828	-0.083771	0.75958	0.10803	0.066833	0.02655	0.032806	-0.36835	-0.96588	-0.18402	-0.1648	0.009766	0.56	-0.008087	0.025177	0.036926	-0.031281	-0.099792	-0.24521	-0.021362	0.002441	-0.00473
2.231	0.028076	0.73257	0.033569	-0.002899	-0.14816	-0.17349	-0.48279	0.006714	0.15778	0.85968	-0.047913	-0.085297	-0.10239	-0.057068	0.018768	-0.002136	0.037689	-0.32196	-1.0251	-0.33371	-0.12634	0.037079	0.57938	0.01297	0.002594	0.004272	-0.009155	-0.17334	-0.53238	-0.24887	0.000916	-0.006561
2.232	0.016937	0.80139	-0.037384	0.005188	-0.1297	-0.029144	-0.49759	0.011292	0.19318	0.8577	0.019073	-0.08316	-0.4039	-0.1973	-0.11597	0.001984	0.019989	-0.42801	-0.99609	-0.29404	-0.11856	0.055695	0.62012	-0.032349	0.011444	-0.007019	0.064697	-0.007782	-0.71472	0.074615	0.001984	-0.005646
2.233	0.031433	0.80856	-0.061035	-0.005493	0.004425	-0.025787	-0.5014	-0.006256	0.10407	0.57327	-0.000458	-0.07309	-0.28656	-0.051727	-0.13367	0.009155	-0.022125	-0.46722	-1.0313	-0.18814	-0.14099	0.053864	0.61035	-0.028229	-0.003815	-0.021973	0.10712	0.19806	-0.62759	0.25681	0.002441	-0.011444
2.234	0.029907	0.77011	-0.098114	0.011139	0.054932	0.11597	-0.46555	0.000763	-0.023041	0.20783	-0.012207	-0.05188	0.11963	-0.19211	0.014496	0.001831	-0.015259	-0.54657	-1.0396	-0.065155	-0.15366	0.021515	0.62103	-0.064392	0.009613	0.000458	0.059509	0.042419	-0.28625	-0.21454	0.002136	-0.015106
2.235	0.015564	0.72678	-0.121	0.001221	-0.014648	0.29724	-0.4512	-0.001068	-0.051575	-0.22888	0.002441	-0.023193	0.15945	-0.24353	0.18616	-0.008087	0.005188	-0.58579	-0.98175	0.19409	-0.16205	-0.019989	0.57877	-0.083618	0.016174	0.00824	-0.044098	0.002899	-0.37643	-0.71457	0.000763	-0.003357
2.236	0.014801	0.70358	-0.10864	0.019684	-0.075836	0.12466	-0.48782	0	-0.019226	-0.54657	0.001526	-0.021515	0.10971	-0.062866	0.15137	-0.004578	0.0177	-0.63751	-1.0439	0.43091	-0.19943	-0.014038	0.62012	-0.11765	0.020752	-0.027771	-0.059357	0.083008	0.084076	-0.43411	0.000305	0.004578
2.237	0.015106	0.71686	-0.020599	0.011139	-0.07843	0.3537	-0.48843	-0.009003	-0.088501	-0.59433	-0.023651	-0.016632	0.056	-0.071869	0.082092	-0.023804	0.043335	-0.63507	-1.1349	0.29312	-0.20203	0.000153	0.6192	-0.16769	0.002594	-0.030212	-0.097351	-0.2507	0.88867	0.082855	-0.00061	0.00885
2.238	0.004883	0.7605	0.058289	0.007019	-0.055847	0.4953	-0.37582	-0.00885	-0.045776	0.3688	-0.018768	-0.028687	0.014648	-0.12253	0.06546	-0.018311	0.025787	-0.69427	-1.14	0.25436	-0.19959	0.007172	0.57022	-0.17197	-0.008698	-0.002136	-0.15533	-0.24612	1.5692	0.52231	-0.000153	0.004272
2.239	-0.002136	0.62408	0.050964	-0.009308	-0.057373	0.59067	-0.36713	0.005341	-0.009766	0.20554	0.023499	-0.027466	-0.023651	-0.17014	0.019989	-0.018463	0.017395	-0.89096	-1.1731	0.25696	-0.19073	0.00885	0.52307	-0.16296	-0.017395	-0.016022	-0.07431	0.075989	1.0538	0.31509	0.001373	-0.016632
